<?xml version="1.0" encoding="utf-8"?>
<!-- Generator: Adobe Illustrator 26.0.1, SVG Export Plug-In . SVG Version: 6.00 Build 0)  -->
<svg version="1.1" id="Layer_1" xmlns="http://www.w3.org/2000/svg" xmlns:xlink="http://www.w3.org/1999/xlink" x="0px" y="0px"
	 viewBox="0 0 218.6 67.7" style="enable-background:new 0 0 218.6 67.7;" xml:space="preserve">
<style type="text/css">
	.st0{fill:#0B0B0A;}
	.st1{fill:#FFFFFE;}
</style>
<g transform="matrix(1, 0, 0, 1, 21118.56, -4095.5)">
	<path class="st0" d="M-21112,4095.5h205.4c3.6,0,6.6,2.9,6.6,6.6l0,0v54.5c0,3.6-2.9,6.6-6.6,6.6l0,0h-205.4
		c-3.6,0-6.6-2.9-6.6-6.6l0,0v-54.5C-21118.6,4098.4-21115.6,4095.5-21112,4095.5L-21112,4095.5z"/>
</g>
<g transform="translate(21151.311 -4077.962)">
	<path class="st1" d="M-21023.8,4115.2c0.3,0.9,0.9,1.7,1.7,2.3c0.8,0.6,1.6,1,2.5,1.3c0.6,0.2,1.2,0.5,1.7,0.8
		c0.8,0.4,1.3,1.2,1.3,2c0.1,0.8-0.2,1.5-0.7,2c-0.4,0.4-0.9,0.6-1.4,0.7c-0.6,0.1-1.3,0.1-1.9,0.1c-0.7-0.1-1.3-0.2-1.9-0.5
		c-0.4-0.1-0.7-0.3-1.1-0.5c-0.1,0.2-0.1,0.3-0.2,0.5c-0.1,0.5-0.3,1-0.4,1.5c-0.1,0.2,0,0.3,0.2,0.4c0.3,0.2,0.7,0.3,1,0.4
		c0.6,0.2,1.2,0.4,1.8,0.4c0.6,0,1.2,0,1.7,0s1.1-0.1,1.6-0.2c0.9-0.2,1.8-0.6,2.5-1.2s1.1-1.3,1.4-2.1c0.2-0.6,0.2-1.3,0.2-2
		s-0.2-1.3-0.6-1.9c-0.5-0.7-1.1-1.4-1.9-1.8c-0.8-0.5-1.6-0.8-2.4-1.2c-0.6-0.2-1.1-0.5-1.6-0.9c-0.7-0.5-1-1.2-0.9-2
		c0.1-0.6,0.4-1.1,0.8-1.5c0.5-0.4,1.2-0.6,1.8-0.6c1.1-0.1,2.3,0.2,3.3,0.7c0.2,0.1,0.2,0.1,0.3-0.1c0.1-0.2,0.1-0.4,0.2-0.6
		c0.1-0.4,0.3-0.8,0.4-1.2c0.1-0.2,0-0.3-0.2-0.3c-0.1-0.1-0.3-0.1-0.4-0.2c-0.8-0.3-1.6-0.5-2.4-0.5c-1.2-0.1-2.5,0.1-3.6,0.5
		c-0.5,0.2-1,0.5-1.4,0.9c-0.9,0.8-1.4,1.8-1.5,2.9C-21024,4114-21024,4114.6-21023.8,4115.2L-21023.8,4115.2z"/>
	<path class="st1" d="M-21054.6,4131.3c0-0.1,0-0.1,0-0.2v-5.6c0-0.1,0-0.2,0-0.3c0.1,0,0.1,0,0.1,0c0,0.1,0.1,0.1,0.1,0.2
		c0.5,0.7,1.2,1.1,2.1,1.3c0.7,0.1,1.3,0.2,2,0.1c1.2-0.2,2.2-0.7,3-1.6s1.3-1.9,1.5-3.1s0.2-2.4,0-3.6c-0.1-0.8-0.4-1.6-0.9-2.3
		c-1-1.6-2.8-2.5-4.6-2.2c-0.5,0.1-1,0.2-1.5,0.4c-0.7,0.3-1.3,0.8-1.8,1.5c-0.1,0.1-0.1,0.2-0.2,0.2h-0.1c0-0.1,0-0.2,0-0.3
		c0-0.4-0.1-0.8-0.1-1.3c0-0.2-0.1-0.3-0.2-0.3c-0.6,0-1.2,0-1.9,0c-0.1,0-0.2,0.1-0.2,0.2c0,0,0,0,0,0.1s0,0.1,0,0.2
		c0,1.3,0.1,2.6,0.1,3.9c0,4.2,0,8.4,0,12.7v0.2c0,0.2,0.1,0.3,0.3,0.3h2.2C-21054.6,4131.6-21054.6,4131.5-21054.6,4131.3z
		 M-21054.6,4119.2c0-0.9,0.4-1.7,1.1-2.4c0.8-0.8,2-1,3-0.6c0.8,0.3,1.5,1,1.8,1.9c0.4,1,0.5,2.2,0.3,3.3c-0.1,0.8-0.4,1.6-0.9,2.3
		c-0.4,0.5-1.1,0.9-1.8,1c-0.6,0.1-1.1,0-1.6-0.2c-0.3-0.1-0.6-0.3-0.9-0.6c-0.6-0.6-0.9-1.4-0.9-2.2c0-0.4,0-0.8,0-1.2l0,0
		C-21054.6,4120-21054.6,4119.6-21054.6,4119.2L-21054.6,4119.2z"/>
	<path class="st1" d="M-20970.5,4115.4c-0.5-0.6-1.2-1.1-2-1.3c-0.6-0.2-1.3-0.3-2-0.2c-1.5,0-2.9,0.7-3.9,1.9
		c-0.9,1-1.4,2.3-1.5,3.7c-0.2,1.2-0.1,2.3,0.3,3.5c0.3,0.9,0.7,1.6,1.4,2.3c0.9,0.8,2,1.4,3.2,1.5c0.9,0.1,1.9,0.1,2.8,0
		c0.5-0.1,1.1-0.2,1.6-0.3c0.3-0.1,0.6-0.2,0.9-0.4c-0.1-0.6-0.2-1.2-0.4-1.8c-0.7,0.3-1.4,0.4-2.2,0.5c-0.6,0.1-1.1,0.1-1.7,0
		c-0.5-0.1-1.1-0.2-1.5-0.5c-1-0.6-1.6-1.6-1.7-2.8c0-0.4,0-0.4,0.4-0.4h7.5c0.1,0,0.2-0.1,0.2-0.2c0-0.2,0.1-0.3,0.1-0.5
		c0.1-0.9,0-1.8-0.3-2.6C-20969.5,4116.8-20969.9,4116-20970.5,4115.4L-20970.5,4115.4z M-20971.9,4119c-0.5,0-1.1,0-1.6,0h-3.4
		c-0.3,0-0.4,0-0.3-0.4c0.1-1.2,0.9-2.2,1.9-2.7c0.4-0.2,0.9-0.3,1.4-0.2c1.1,0.2,2,1.1,2.2,2.2c0.1,0.3,0.1,0.5,0.1,0.8
		C-20971.6,4119-20971.6,4119-20971.9,4119z"/>
	<path class="st1" d="M-20985.8,4116.5c0-0.1,0-0.2,0-0.4c0-0.6,0-1.1-0.1-1.7c0-0.3-0.1-0.3-0.3-0.3h-2c0,0.1,0,0.2,0,0.4
		c0,1.1,0.1,2.2,0.1,3.3c0,2.8,0,5.6,0,8.3c0,0.4,0,0.4,0.4,0.4h1.7c0.5,0,0.5,0.1,0.5-0.5v-5.9c0-0.9,0.2-1.7,0.6-2.4
		c0.4-0.6,1.1-1.1,1.8-1.2c0.3,0,0.7,0,1,0c0.2,0,0.3,0,0.3-0.3v-2c0-0.2-0.1-0.3-0.3-0.3c-0.7-0.1-1.4,0.1-2,0.4
		c-0.7,0.4-1.2,1-1.5,1.7C-20985.6,4116.3-20985.7,4116.4-20985.8,4116.5L-20985.8,4116.5z"/>
	<path class="st1" d="M-21011.9,4116.2c0.4,0,0.7,0,1.1,0c0.5,0,0.5,0,0.5,0.5v5.8c0,0.8,0.1,1.5,0.3,2.3c0.1,0.4,0.3,0.8,0.6,1.1
		c0.7,0.7,1.6,1.1,2.6,1c0.6,0,1.2,0,1.7-0.2c0.3-0.1,0.3-0.1,0.3-0.4c0-0.5,0-1,0-1.5c0-0.1,0-0.1,0-0.2c-0.1,0-0.2,0-0.2,0
		c-0.3,0-0.7,0.1-1,0.1c-0.6,0-1.1-0.4-1.3-0.9c-0.2-0.5-0.3-1-0.2-1.5c0-1.8,0-3.7,0-5.5v-0.2c0-0.1,0.1-0.2,0.2-0.2l0,0
		c0.1,0,0.2,0,0.2,0h2.5c0-0.1,0-0.1,0-0.2c0-0.5,0-1.1,0-1.6c0-0.2,0-0.2-0.3-0.2h-2.2c-0.5,0-0.5,0-0.5-0.5v-2.3
		c0-0.2-0.1-0.3-0.3-0.2c-0.2,0.1-0.4,0.1-0.6,0.2c-0.5,0.1-0.9,0.3-1.4,0.4c-0.3,0.1-0.4,0.1-0.4,0.5v1.6c0,0.3-0.1,0.3-0.3,0.3
		c-0.4,0-0.8,0-1.2,0c-0.3,0-0.3,0-0.3,0.3c0,0.5,0,1,0,1.5C-21012.1,4116.1-21012.1,4116.2-21011.9,4116.2z"/>
	<path class="st1" d="M-21002.9,4120.4c0,0.8,0.1,1.7,0.4,2.4c0.3,1,0.9,1.9,1.7,2.6c0.7,0.6,1.6,1.1,2.6,1.2c0.8,0.1,1.5,0.1,2.3,0
		c0.7-0.1,1.3-0.3,1.9-0.6c1.6-0.9,2.7-2.4,3-4.2c0.2-1,0.2-2,0.1-3c-0.1-0.8-0.4-1.6-0.8-2.4c-1-1.6-2.7-2.6-4.6-2.6
		c-0.6,0-1.2,0-1.8,0.1c-0.6,0.1-1.1,0.3-1.6,0.6c-1.2,0.7-2.2,1.9-2.6,3.3C-21002.8,4118.7-21002.9,4119.6-21002.9,4120.4
		L-21002.9,4120.4z M-20999.8,4118.2c0.2-0.8,0.7-1.5,1.4-1.9c0.6-0.4,1.4-0.5,2.1-0.3c0.9,0.2,1.7,0.9,2,1.7
		c0.5,1.1,0.7,2.3,0.5,3.4c-0.1,0.9-0.4,1.7-0.8,2.4c-0.8,1.3-2.5,1.7-3.8,0.9c-0.1-0.1-0.2-0.1-0.3-0.2c-0.5-0.5-0.9-1.1-1.1-1.7
		c-0.3-0.7-0.4-1.4-0.3-2.1C-21000.2,4119.6-21000.1,4118.9-20999.8,4118.2L-20999.8,4118.2z"/>
	<path class="st1" d="M-21071.7,4126.5c0.1,0,0.2-0.1,0.2-0.2c0.1-0.4,0.3-0.8,0.4-1.3c0.1-0.4,0.3-0.9,0.4-1.3
		c0.2-0.7,0.4-1.4,0.6-2c0.1-0.3,0.1-0.3,0.4-0.3h4.9c0.3,0,0.4,0.1,0.4,0.3c0.1,0.4,0.2,0.8,0.4,1.2c0.3,0.9,0.5,1.7,0.8,2.6
		c0.1,0.3,0.2,0.5,0.3,0.8c0,0.1,0.1,0.2,0.3,0.2c0.8,0,1.6,0,2.4,0c0.1,0,0.2,0,0.2,0c-0.2-0.6-0.3-1.1-0.5-1.6
		c-0.1-0.3-0.2-0.7-0.3-1l-0.6-1.8c-0.2-0.6-0.4-1.2-0.6-1.8c-0.2-0.6-0.4-1.2-0.6-1.8c-0.1-0.4-0.3-0.8-0.4-1.2
		c-0.2-0.6-0.4-1.2-0.6-1.8l-0.5-1.7c-0.2-0.6-0.4-1.2-0.6-1.8s-0.4-1.2-0.6-1.8c-0.1-0.2-0.1-0.4-0.2-0.6c0-0.1-0.2-0.2-0.3-0.2
		c-1,0-1.9,0-2.9,0c-0.1,0-0.3,0.1-0.3,0.2c-0.2,0.7-0.4,1.3-0.6,2l-0.5,1.7c-0.2,0.6-0.4,1.2-0.6,1.8c-0.2,0.6-0.4,1.2-0.6,1.9
		c-0.2,0.6-0.4,1.2-0.6,1.7c-0.2,0.6-0.4,1.2-0.6,1.8c-0.2,0.6-0.4,1.2-0.6,1.8c-0.2,0.6-0.4,1.2-0.6,1.8c-0.2,0.6-0.4,1.2-0.6,1.8
		c-0.1,0.2-0.1,0.5-0.2,0.8c0.1,0,0.1,0,0.2,0.1C-21073.2,4126.5-21072.4,4126.5-21071.7,4126.5z M-21069.4,4119.1
		c0.1-0.3,0.2-0.7,0.3-1l0.6-1.9c0.1-0.4,0.3-0.8,0.4-1.2c0.2-0.5,0.3-1.1,0.4-1.6s0.2-1,0.4-1.5c0-0.1,0.1-0.1,0.1-0.2
		c0,0.1,0.1,0.1,0.1,0.2c0.2,0.7,0.3,1.4,0.5,2.1c0.1,0.4,0.3,0.8,0.4,1.3c0.2,0.6,0.4,1.2,0.6,1.8c0.2,0.6,0.4,1.2,0.6,1.9
		c0,0.1,0,0.1,0,0.1c0,0.2,0,0.3-0.2,0.3s-0.4,0-0.6,0h-3.2c-0.1,0-0.2,0-0.2,0C-21069.4,4119.4-21069.5,4119.3-21069.4,4119.1
		L-21069.4,4119.1z"/>
	<path class="st1" d="M-21100.2,4100.6c0.3,0,0.6-0.1,0.9-0.1c0.9-0.2,1.7-0.5,2.4-1c0.8-0.6,1.5-1.3,2.1-2.2c0.7-1,1.1-2.1,1.4-3.3
		c0.1-0.6,0.1-1.2,0.1-1.9c0-0.1,0-0.1,0-0.2c-0.1,0-0.3,0-0.4,0c-0.7,0.1-1.3,0.3-1.9,0.6c-1.3,0.5-2.4,1.4-3.2,2.5
		c-1,1.5-1.6,3.3-1.6,5.1c0,0.1,0,0.2,0,0.4C-21100.4,4100.6-21100.3,4100.6-21100.2,4100.6z"/>
	<path class="st1" d="M-21114.9,4113.7c0.1,0.3,0.1,0.7,0.2,1c0.1,0.4,0.1,0.8,0.2,1.2c0.1,0.6,0.3,1.1,0.5,1.7
		c0.3,1.1,0.8,2.2,1.3,3.3c0.8,1.6,1.7,3.1,2.7,4.5c0.6,0.8,1.3,1.5,2.1,2c0.6,0.4,1.3,0.7,2,0.8c0.7,0.1,1.4-0.1,2.1-0.4
		s1.4-0.6,2.1-0.9c0.3-0.1,0.6-0.2,1-0.3c0.6-0.1,1.3-0.1,1.9-0.1c0.5,0,0.9,0,1.4,0.2s1.1,0.5,1.6,0.7s1.1,0.4,1.7,0.6
		c0.6,0.1,1.2,0.1,1.8-0.1c1-0.3,1.8-0.9,2.5-1.6c0.9-0.9,1.7-2,2.3-3.1c0.9-1.5,1.6-3.1,2.3-4.8c0,0,0-0.1,0-0.2
		c-0.5-0.3-0.9-0.5-1.4-0.8c-1.2-0.8-2.2-1.9-2.8-3.3c-0.4-0.9-0.6-1.9-0.6-2.9c-0.1-1.2,0.1-2.4,0.6-3.6c0.4-1,1.1-2,1.9-2.8
		c0.4-0.4,0.9-0.9,1.4-1.3c-0.6-0.8-1.2-1.5-2-2.1c-1.2-0.9-2.7-1.4-4.2-1.4c-0.9-0.1-1.8,0-2.7,0.2c-0.9,0.3-1.7,0.6-2.6,0.9
		c-0.5,0.2-1,0.3-1.5,0.4c-0.7,0.1-1.4,0-2-0.2c-0.8-0.3-1.5-0.6-2.3-0.8c-0.5-0.2-1-0.3-1.4-0.3c-0.5-0.1-1-0.1-1.5-0.1
		c-0.9,0-1.7,0.2-2.5,0.5c-1.6,0.6-3,1.7-4,3.1c-0.9,1.3-1.5,2.7-1.8,4.2c-0.1,0.7-0.2,1.5-0.3,2.2c-0.1,1.1,0,2.2,0.1,3.2
		C-21114.9,4113.7-21114.9,4113.7-21114.9,4113.7L-21114.9,4113.7z"/>
	<path class="st1" d="M-21042.8,4120.8c0,3.5,0,6.9,0,10.4c0,0.4,0,0.4,0.4,0.4h1.9c0.4,0,0.4,0,0.4-0.4v-5.6c0-0.1,0-0.2,0.1-0.3
		h0.1l0.1,0.1c0.4,0.6,1,1,1.7,1.3c0.6,0.2,1.2,0.2,1.8,0.2c1.2,0,2.3-0.5,3.2-1.3c1.2-1.1,1.9-2.7,1.9-4.3c0-0.4,0-0.9,0-1.3
		c0-1-0.2-2-0.7-3c-0.5-1.2-1.5-2.2-2.8-2.7c-0.7-0.2-1.5-0.3-2.2-0.2c-0.3,0-0.6,0.1-0.9,0.2c-0.9,0.3-1.7,0.9-2.3,1.7
		c-0.1,0.1-0.1,0.2-0.2,0.2c-0.2-0.1-0.1-0.2-0.1-0.3c0-0.4-0.1-0.8-0.1-1.3c0-0.3-0.1-0.3-0.4-0.3h-1.6c-0.3,0-0.4,0-0.4,0.3
		C-21042.9,4116.6-21042.8,4118.7-21042.8,4120.8z M-21040.1,4120.5c0-0.4,0-0.8,0-1.2c0-0.8,0.3-1.5,0.8-2.1c0.8-1,2.2-1.4,3.4-0.9
		c0.7,0.3,1.2,0.8,1.5,1.5c0.4,0.7,0.5,1.5,0.5,2.3s-0.1,1.7-0.4,2.5c-0.2,0.8-0.8,1.4-1.4,1.8c-0.5,0.3-1.1,0.4-1.7,0.3
		c-1.1-0.1-2.1-0.8-2.5-1.9c-0.1-0.3-0.2-0.7-0.2-1C-21040.2,4121.3-21040.1,4120.9-21040.1,4120.5L-21040.1,4120.5z"/>
	<path class="st1" d="M-21020.9,4103.2c0.4,0.9,1.3,1.5,2.3,1.6c0.8,0.1,1.6,0.1,2.4-0.2c0.6-0.2,0.5-0.1,0.4-0.7
		c0-0.1,0-0.2-0.1-0.2c-0.1-0.2-0.2-0.3-0.4-0.2c-0.4,0.1-0.8,0.2-1.2,0.2c-0.5,0.1-1,0-1.4-0.2c-0.6-0.3-1-0.9-1-1.6
		c0-0.1,0-0.2,0.1-0.2l0,0c0.1,0,0.2,0,0.3,0h3.7c0.3,0,0.4,0,0.4-0.3c0.1-0.8-0.1-1.6-0.5-2.3c-0.3-0.5-0.7-0.9-1.2-1
		c-0.5-0.2-1-0.2-1.4-0.1c-0.8,0.1-1.5,0.4-2,1.1c-0.6,0.8-0.9,1.9-0.8,2.9C-21021.2,4102.3-21021.1,4102.7-21020.9,4103.2
		L-21020.9,4103.2z M-21019.8,4100.3c0.1-0.6,0.5-1.1,1-1.4c0.7-0.3,1.5-0.1,1.9,0.6c0,0.1,0.1,0.2,0.1,0.3c0.1,0.2,0.1,0.3,0.1,0.5
		c0,0.3,0,0.3-0.3,0.4c-0.4,0-0.9,0-1.3,0h-1.2C-21019.8,4100.6-21019.9,4100.6-21019.8,4100.3L-21019.8,4100.3z"/>
	<path class="st1" d="M-21024.8,4099.7v4.7c0,0.2,0.1,0.3,0.2,0.3h1c0.1,0,0.2-0.1,0.2-0.2c0,0,0,0,0-0.1v-9.4
		c0-0.1-0.1-0.2-0.2-0.2l0,0h-1c-0.2,0-0.2,0.1-0.2,0.2v0.2C-21024.8,4096.7-21024.8,4098.2-21024.8,4099.7z"/>
	<path class="st1" d="M-20974.5,4104.3c0.5,0.3,1,0.5,1.6,0.5c0.8,0.1,1.6-0.1,2.3-0.3c0.2-0.1,0.2-0.1,0.2-0.3
		c-0.1-0.2-0.1-0.5-0.2-0.8c-0.2,0-0.3,0.1-0.4,0.1c-0.7,0.2-1.4,0.2-2.1,0.1c-0.8-0.2-1.4-0.9-1.4-1.7c0-0.2,0-0.3,0.3-0.3h4.2
		c0.2-0.9,0-1.8-0.4-2.6c-0.3-0.5-0.7-0.9-1.3-1.1c-0.8-0.2-1.7-0.2-2.4,0.2c-1,0.5-1.6,1.6-1.7,2.7c-0.1,0.6,0,1.3,0.1,1.9
		C-20975.5,4103.4-20975.1,4103.9-20974.5,4104.3L-20974.5,4104.3z M-20974.5,4100.3c0.1-0.6,0.4-1.1,0.9-1.4
		c0.7-0.4,1.5-0.2,1.9,0.5c0,0.1,0.1,0.1,0.1,0.2c0.1,0.2,0.1,0.4,0.2,0.6c0,0.3,0,0.4-0.3,0.4h-1.2c-0.4,0-0.9,0-1.3,0
		C-20974.5,4100.6-20974.6,4100.5-20974.5,4100.3L-20974.5,4100.3z"/>
	<path class="st1" d="M-21033.1,4104.7c0.2,0,0.3,0,0.5,0c0.6,0,0.6,0,0.6-0.6c0-0.1,0-0.3,0.1-0.4l0.1,0.1c0.7,1,2.1,1.3,3.2,0.7
		c0.8-0.4,1.4-1.2,1.6-2.2c0.2-0.9,0.2-1.8-0.1-2.7c-0.3-1.1-1.3-1.8-2.4-1.9c-0.6-0.1-1.2,0.1-1.7,0.5c-0.2,0.1-0.3,0.3-0.5,0.5
		h-0.1c0-0.1,0-0.2,0-0.3v-2.4c0-0.4,0-0.7,0-1.1c0-0.2-0.1-0.2-0.3-0.3c-0.3,0-0.6,0-0.9,0c-0.2,0-0.3,0.1-0.3,0.3v0.2
		c0,1.8,0,3.6,0,5.4c0,1.2,0,2.5-0.1,3.7v0.1C-21033.3,4104.6-21033.2,4104.7-21033.1,4104.7L-21033.1,4104.7L-21033.1,4104.7z
		 M-21031.8,4100.6c0-0.7,0.5-1.3,1.1-1.5c0.8-0.3,1.6,0,2,0.8c0.4,0.7,0.5,1.5,0.3,2.2c-0.1,0.4-0.2,0.7-0.5,1.1
		c-0.6,0.7-1.6,0.8-2.3,0.2c-0.2-0.2-0.4-0.4-0.5-0.7c-0.1-0.4-0.2-0.8-0.1-1.3C-21031.8,4101.1-21031.8,4100.8-21031.8,4100.6
		L-21031.8,4100.6z"/>
	<path class="st1" d="M-20989.7,4098.8c0,0.1,0.1,0.2,0.2,0.2l0,0h0.4c0.3,0,0.3,0,0.3,0.3v2.8c0,0.5,0,1,0.1,1.4
		c0.1,0.3,0.2,0.5,0.4,0.8c0.6,0.5,1.5,0.7,2.3,0.4c0.1,0,0.2-0.2,0.2-0.3c0-0.2,0-0.4,0-0.6s-0.1-0.2-0.3-0.2c-0.1,0-0.2,0-0.3,0
		c-0.4,0-0.8-0.3-0.8-0.7c-0.1-0.2-0.1-0.5-0.1-0.7c0-1,0-2,0-2.9c0-0.3,0-0.3,0.3-0.3s0.7,0,1,0c0.1,0,0.2,0,0.3,0
		c0-0.3,0-0.5,0-0.8s0-0.3-0.3-0.3h-1c-0.3,0-0.4-0.1-0.4-0.4v-1.2c-0.1,0-0.2,0-0.3,0c-0.3,0.1-0.6,0.2-0.8,0.3s-0.3,0.1-0.3,0.4
		c0,0.2,0,0.5,0,0.7s-0.1,0.2-0.3,0.3c-0.1,0-0.3,0-0.4,0c-0.2,0-0.3,0.1-0.3,0.3C-20989.7,4098.4-20989.7,4098.6-20989.7,4098.8z"
		/>
	<path class="st1" d="M-21001.1,4099.3c0,1.6,0,3.3,0,4.9v0.3c0,0.1,0.1,0.2,0.2,0.2h1c0.2,0,0.2-0.1,0.2-0.2v-0.3
		c0-1.1,0-2.2,0-3.3c0-0.3,0-0.5,0.1-0.8c0.1-0.8,0.9-1.3,1.6-1.2c0.5,0,0.9,0.4,1.1,0.9c0.1,0.3,0.2,0.7,0.1,1v3.6
		c0,0.2,0,0.3,0.3,0.3s0.5,0,0.8,0c0.4,0,0.4,0,0.4-0.4c0-1.2,0-2.3,0-3.5c0-0.5-0.1-1.1-0.2-1.6c-0.3-1-1.4-1.6-2.4-1.4
		c-0.6,0-1.2,0.3-1.5,0.8c-0.1,0.1-0.2,0.2-0.3,0.2h-0.1c0-0.2,0-0.4,0-0.6c0-0.3,0-0.3-0.3-0.3h-0.6c-0.3,0-0.4,0-0.3,0.4
		C-21001.1,4098.6-21001.1,4098.9-21001.1,4099.3z"/>
	<path class="st1" d="M-21037.6,4100.3c-0.2,0-0.3,0-0.5,0.1c-0.6,0-1.3,0.2-1.9,0.4c-0.9,0.4-1.5,1.3-1.4,2.3
		c0,0.7,0.5,1.3,1.1,1.6c0.4,0.2,0.8,0.2,1.2,0.2c0.5,0,1-0.3,1.4-0.6l0.1-0.1c0.1-0.1,0.1-0.1,0.2,0v0.1c0,0.1,0,0.2,0.1,0.4
		c0,0.1,0.1,0.2,0.2,0.2l0,0c0.3,0,0.6,0,0.8,0c0.2,0,0.2-0.1,0.2-0.3c0-0.2,0-0.5-0.1-0.7c0-1.1,0-2.2,0-3.3c0-0.4-0.1-0.7-0.1-1.1
		c-0.2-0.9-1-1.5-1.8-1.6c-0.5-0.1-0.9-0.1-1.4,0c-0.4,0.1-0.8,0.2-1.2,0.4c-0.2,0.1-0.3,0.2-0.2,0.4c0.1,0.2,0.1,0.4,0.2,0.6
		c0.1,0,0.2-0.1,0.3-0.1c0.5-0.3,1.1-0.4,1.7-0.3c0.6,0,1.1,0.6,1.1,1.2C-21037.3,4100.1-21037.4,4100.3-21037.6,4100.3
		C-21037.5,4100.3-21037.6,4100.3-21037.6,4100.3L-21037.6,4100.3z M-21037.3,4101.6v0.5c0,0.3,0,0.6-0.1,0.9
		c-0.3,0.7-1.1,1-1.8,0.7c-0.4-0.2-0.6-0.7-0.6-1.2c0.1-0.5,0.4-0.9,0.9-1c0.4-0.2,0.9-0.2,1.3-0.2
		C-21037.4,4101.3-21037.3,4101.4-21037.3,4101.6L-21037.3,4101.6z"/>
	<path class="st1" d="M-20983.5,4104.3c0,0.4,0,0.4,0.4,0.4h0.6c0.4,0,0.4,0,0.4-0.4c0-1.2,0-2.5,0-3.7c0-0.2,0-0.4,0.1-0.6
		c0.2-0.7,0.9-1.1,1.6-0.9c0.4,0,0.7,0.3,0.9,0.6c0.2,0.4,0.3,0.9,0.2,1.3c0,1,0,1.9,0,2.9c0,0.2,0,0.4,0,0.7c0,0.2,0.1,0.3,0.2,0.3
		c0.4,0,0.7,0,1.1,0c0.1,0,0.1-0.1,0.2-0.2c0-0.1,0-0.2,0-0.2c0-1.2,0-2.4,0-3.6c0-0.4-0.1-0.8-0.1-1.1c-0.2-1-1-1.8-2.1-1.8
		c-0.7-0.1-1.4,0.3-1.9,0.8c0,0.1-0.1,0.1-0.1,0.2c-0.2-0.1-0.2-0.3-0.2-0.4v-3.4c0-0.1-0.1-0.2-0.2-0.2l0,0h-1.1
		c-0.1,0-0.2,0.1-0.2,0.2v5.8C-20983.5,4102-20983.5,4103.2-20983.5,4104.3z"/>
	<path class="st1" d="M-21007.6,4104.7c0.5,0.2,1.1,0.2,1.7,0.1c0.8-0.1,1.5-0.5,2-1.2s0.7-1.5,0.7-2.3c0.1-0.9-0.2-1.7-0.7-2.4
		c-0.3-0.4-0.8-0.8-1.3-0.9s-1-0.2-1.5-0.2c-0.8,0-1.6,0.4-2.1,1.1c-0.4,0.5-0.7,1.1-0.8,1.8c-0.2,1.1,0.1,2.3,0.8,3.1
		C-21008.5,4104.2-21008.1,4104.5-21007.6,4104.7L-21007.6,4104.7z M-21007.7,4099.6c0.5-0.7,1.4-0.9,2.1-0.5
		c0.2,0.1,0.4,0.4,0.5,0.6c0.3,0.5,0.4,1.1,0.4,1.6c0,0.6-0.1,1.1-0.4,1.6c-0.4,0.8-1.3,1.1-2,0.8c-0.3-0.2-0.6-0.4-0.8-0.8
		c-0.3-0.5-0.4-1-0.3-1.5C-21008.2,4100.7-21008.1,4100.1-21007.7,4099.6L-21007.7,4099.6z"/>
	<path class="st1" d="M-21064.2,4100.2c0.4,1.2,0.9,2.4,1.3,3.6c0.1,0.2,0.2,0.5,0.3,0.7c0,0.1,0.2,0.2,0.3,0.2c0.3,0,0.6,0,1,0
		c0.2,0,0.3-0.1,0.3-0.3c0.1-0.4,0.3-0.8,0.4-1.1c0.3-0.7,0.5-1.4,0.8-2.1c0.3-0.9,0.7-1.8,1-2.6c0.1-0.2,0.2-0.4,0.2-0.7
		c-0.4,0-0.9,0-1.3,0c-0.1,0-0.1,0.1-0.2,0.2c-0.1,0.2-0.1,0.4-0.2,0.7c-0.2,0.7-0.4,1.3-0.6,2s-0.4,1.5-0.7,2.2
		c0,0.1-0.1,0.2-0.1,0.3h-0.1c0-0.1-0.1-0.1-0.1-0.2c-0.3-0.9-0.5-1.7-0.8-2.6c-0.2-0.6-0.4-1.3-0.6-1.9c-0.2-0.5-0.2-0.6-0.7-0.6
		h-0.9c0,0.1,0,0.2,0,0.3C-21064.7,4098.9-21064.5,4099.5-21064.2,4100.2z"/>
	<path class="st1" d="M-21053.7,4100.3c-0.4,0-0.8,0.1-1.2,0.1c-0.7,0.1-1.3,0.4-1.9,0.8c-0.7,0.7-0.8,1.7-0.4,2.5
		c0.3,0.6,0.9,1,1.6,1c0.7,0.1,1.4-0.2,1.9-0.7c0.1-0.1,0.2-0.1,0.3-0.2c0,0.2,0,0.3,0.1,0.5c0,0.2,0.1,0.3,0.3,0.3
		c0.2,0,0.5,0,0.7,0s0.3,0,0.3-0.3s-0.1-0.6-0.1-0.8c0-0.9,0-1.9,0-2.8c0-0.4,0-0.8-0.1-1.2c-0.1-0.6-0.5-1.2-1.1-1.5
		c-0.4-0.2-0.8-0.3-1.3-0.3c-0.6,0-1.2,0-1.8,0.2c-0.2,0.1-0.3,0.2-0.5,0.2c-0.1,0-0.2,0.2-0.1,0.3l0,0c0.1,0.1,0.1,0.3,0.1,0.4
		c0.1,0.2,0.2,0.3,0.4,0.2c0.6-0.3,1.2-0.4,1.8-0.3c0.6,0.1,1.1,0.6,1.1,1.2C-21053.4,4100.3-21053.5,4100.3-21053.7,4100.3z
		 M-21053.4,4101.6v0.5c0,0.3,0,0.7-0.2,1c-0.3,0.5-0.9,0.8-1.6,0.7c-0.4-0.1-0.7-0.4-0.8-0.9c-0.1-0.7,0.3-1.3,1-1.4
		c0.4-0.1,0.8-0.2,1.2-0.2C-21053.4,4101.3-21053.4,4101.3-21053.4,4101.6L-21053.4,4101.6z"/>
	<path class="st1" d="M-21073.5,4104.7c0.3,0,0.7,0,1,0c0.1,0,0.3-0.1,0.3-0.2c0.2-0.8,0.5-1.5,0.7-2.2c0.1-0.3,0.1-0.4,0.5-0.4
		s0.8,0,1.2,0c0.4,0,0.8,0,1.2,0c0.1,0,0.3,0.1,0.3,0.2s0.1,0.2,0.1,0.3c0.1,0.5,0.3,0.9,0.4,1.4c0.1,0.3,0.2,0.5,0.3,0.8
		c0,0.1,0.1,0.2,0.2,0.2h1.1c0.2,0,0.2-0.1,0.2-0.2c-0.2-0.6-0.4-1.1-0.5-1.7c-0.2-0.6-0.4-1.3-0.6-1.9c-0.2-0.7-0.4-1.3-0.6-2
		c-0.2-0.6-0.4-1.3-0.6-1.9c-0.2-0.5-0.3-1-0.5-1.5c0-0.2-0.2-0.3-0.3-0.2c-0.3,0-0.7,0-1,0c-0.5,0-0.5,0-0.7,0.5c0,0,0,0,0,0.1
		c-0.2,0.6-0.4,1.3-0.6,1.9s-0.4,1.3-0.6,1.9c-0.3,0.8-0.5,1.6-0.8,2.4s-0.5,1.6-0.8,2.4
		C-21073.7,4104.6-21073.7,4104.7-21073.5,4104.7z M-21071.1,4100.5c0.2-0.7,0.5-1.5,0.7-2.2c0.1-0.4,0.2-0.8,0.3-1.2
		c0-0.2,0.1-0.3,0.3-0.4c0,0.1,0.1,0.1,0.1,0.2c0.2,0.8,0.4,1.5,0.6,2.3c0.1,0.4,0.3,0.8,0.4,1.2v0.1c0,0.3,0,0.3-0.2,0.3
		c-0.3,0-0.6,0-0.8,0c-0.4,0-0.7,0-1.1,0C-21071.1,4100.8-21071.1,4100.7-21071.1,4100.5z"/>
	<path class="st1" d="M-21044.8,4104.7c0.3,0,0.6,0,0.9,0c0.2,0,0.2,0,0.3-0.3v-9.5c0-0.1-0.1-0.2-0.2-0.2l0,0c-0.4,0-0.7,0-1.1,0
		c-0.1,0-0.2,0.1-0.2,0.2l0,0v9.4C-21045.1,4104.7-21045,4104.7-21044.8,4104.7z"/>
	<path class="st1" d="M-21047.8,4098.2c0-0.2-0.1-0.3-0.3-0.3c-0.2,0-0.4,0-0.6,0c-0.5,0-0.5,0-0.5,0.5v6.1c0,0.2,0.1,0.2,0.2,0.2
		c0.3,0,0.5,0,0.8,0c0.4,0,0.4,0,0.4-0.4v-5C-21047.8,4098.9-21047.8,4098.6-21047.8,4098.2z"/>
	<path class="st1" d="M-21048.6,4096.7c0.5,0,0.9-0.4,0.9-0.8l0,0c0-0.5-0.4-0.9-0.8-0.9c0,0,0,0-0.1,0c-0.5,0-0.9,0.4-0.9,0.8
		C-21049.5,4096.3-21049.1,4096.7-21048.6,4096.7L-21048.6,4096.7L-21048.6,4096.7z"/>
</g>
</svg>
