<?xml version="1.0" encoding="utf-8"?>
<!-- Generator: Adobe Illustrator 26.0.1, SVG Export Plug-In . SVG Version: 6.00 Build 0)  -->
<svg version="1.1" id="Layer_1" xmlns="http://www.w3.org/2000/svg" xmlns:xlink="http://www.w3.org/1999/xlink" x="0px" y="0px"
	 viewBox="0 0 218.6 67.7" style="enable-background:new 0 0 218.6 67.7;" xml:space="preserve">
<style type="text/css">
	.st0{fill:#191918;}
	.st1{fill:#F9F9F8;}
	.st2{fill:url(#SVGID_1_);}
	.st3{fill:url(#SVGID_00000063603885203209552850000013123822016752479154_);}
	.st4{fill:url(#SVGID_00000176027318464244813950000001549784605231855807_);}
	.st5{fill:url(#SVGID_00000097486779199759385660000016315026920325873282_);}
	.st6{opacity:0.2;enable-background:new    ;}
	.st7{opacity:0.12;enable-background:new    ;}
	.st8{opacity:0.25;fill:#FFFFFF;enable-background:new    ;}
</style>
<g transform="matrix(1, 0, 0, 1, 20860.5, -4090.98)">
	<path class="st0" d="M-20853.9,4091h205.4c3.6,0,6.6,2.9,6.6,6.6l0,0v54.5c0,3.6-2.9,6.6-6.6,6.6l0,0h-205.4
		c-3.6,0-6.6-2.9-6.6-6.6l0,0v-54.6C-20860.5,4093.9-20857.6,4091-20853.9,4091L-20853.9,4091z"/>
</g>
<g transform="translate(20893.373 -4071.737)">
	<path class="st1" d="M-20812.3,4092c0.1,1-0.3,2-1,2.8c-1.7,1.7-4.4,1.7-6.1,0s-1.7-4.4,0-6.1c0.8-0.8,1.9-1.3,3.1-1.3
		c0.6,0,1.1,0.1,1.7,0.4c0.5,0.2,0.9,0.5,1.2,1l-0.7,0.7c-0.5-0.7-1.4-1-2.2-1c-0.8,0-1.7,0.3-2.2,1c-0.7,0.6-1,1.5-1,2.3
		c-0.1,0.9,0.3,1.8,1,2.3c0.6,0.6,1.4,0.9,2.2,1c0.9,0,1.7-0.3,2.3-1c0.4-0.4,0.7-1,0.7-1.7h-3v-1.1h4V4092L-20812.3,4092z
		 M-20806,4088.6h-3.7v2.6h3.5v1h-3.5v2.6h3.7v1.1h-4.8v-8.3h4.8V4088.6z M-20801.4,4095.9h-1.1v-7.3h-2.4v-1h5.8v1h-2.3V4095.9z
		 M-20795.1,4095.9v-8.3h1.1v8.3H-20795.1z M-20789.3,4095.9h-1.1v-7.3h-2.4v-1h5.7v1h-2.4v7.3H-20789.3z M-20776.2,4094.8
		c-1.7,1.7-4.4,1.7-6.1,0s-1.7-4.4,0-6.1s4.4-1.7,6.1,0c0.8,0.8,1.3,1.9,1.3,3C-20774.9,4092.9-20775.3,4094-20776.2,4094.8
		L-20776.2,4094.8z M-20781.4,4094.1c0.6,0.6,1.4,0.9,2.2,1c0.8,0,1.7-0.3,2.2-1c0.6-0.6,1-1.5,1-2.3c0.1-0.9-0.3-1.8-1-2.3
		c-0.6-0.6-1.4-0.9-2.2-1c-0.8,0-1.7,0.3-2.2,1c-0.6,0.6-1,1.5-1,2.3C-20782.4,4092.7-20782.1,4093.5-20781.4,4094.1
		L-20781.4,4094.1z M-20773.4,4095.9v-8.3h1.2l4,6.5v-6.5h1.1v8.3h-1.1l-4.3-6.8v6.8L-20773.4,4095.9L-20773.4,4095.9z"/>
	<path class="st1" d="M-20783.8,4108.1c-3.2-0.1-5.9,2.5-5.9,5.7c0,0.1,0,0.2,0,0.3c0,3.3,2.6,5.9,5.8,5.9h0.1
		c3.2,0.1,5.9-2.5,5.9-5.7c0-0.1,0-0.2,0-0.3c0.1-3.2-2.3-5.8-5.5-5.9C-20783.5,4108.1-20783.6,4108.1-20783.8,4108.1z
		 M-20783.8,4117.4c-1.9-0.1-3.4-1.6-3.3-3.5c0,0,0,0,0-0.1c-0.1-1.9,1.4-3.5,3.3-3.6c0,0,0,0,0.1,0c1.8,0,3.3,1.5,3.3,3.4
		c0,0.1,0,0.1,0,0.2C-20780.4,4115.7-20781.8,4117.4-20783.8,4117.4C-20783.7,4117.4-20783.7,4117.4-20783.8,4117.4z
		 M-20796.6,4108.1c-3.2-0.1-5.9,2.5-5.9,5.7c0,0.1,0,0.2,0,0.3c0,3.3,2.6,5.9,5.8,5.9h0.1c3.2,0.1,5.9-2.5,5.9-5.7
		c0-0.1,0-0.2,0-0.3c0.1-3.2-2.3-5.8-5.5-5.9C-20796.3,4108.1-20796.5,4108.1-20796.6,4108.1z M-20796.6,4117.4
		c-1.9-0.1-3.4-1.6-3.3-3.5c0,0,0,0,0-0.1c-0.1-1.9,1.4-3.5,3.3-3.6c0,0,0,0,0.1,0c1.8,0,3.3,1.5,3.3,3.4c0,0.1,0,0.1,0,0.2
		C-20793.2,4115.7-20794.7,4117.4-20796.6,4117.4L-20796.6,4117.4z M-20811.9,4109.8v2.5h5.9c-0.1,1.2-0.6,2.3-1.4,3.2
		c-1.2,1.2-2.9,1.9-4.6,1.8c-3.6,0-6.5-2.8-6.5-6.4c0-0.1,0-0.2,0-0.3c-0.1-3.6,2.8-6.6,6.4-6.6h0.1c1.7,0,3.3,0.7,4.6,1.8l1.8-1.8
		c-1.7-1.6-3.9-2.5-6.2-2.5c-5,0-9.1,4.1-9.3,9.1c0.1,5,4.2,9.1,9.3,9.1c2.4,0.1,4.7-0.8,6.4-2.6c1.5-1.6,2.2-3.7,2.2-5.8
		c0-0.5,0-1-0.1-1.5L-20811.9,4109.8L-20811.9,4109.8z M-20749.2,4111.8c-0.7-2.2-2.7-3.7-5-3.7c-3,0-5.5,2.3-5.5,5.9
		c-0.1,3.2,2.4,5.8,5.6,5.9c0.1,0,0.1,0,0.2,0c2,0,3.8-1,4.8-2.6l-1.9-1.4c-0.6,1-1.7,1.7-2.9,1.7c-1.2,0.1-2.4-0.7-2.9-1.8l7.9-3.3
		L-20749.2,4111.8z M-20757.2,4113.7c-0.1-1.8,1.3-3.3,3-3.5c0.9,0,1.8,0.4,2.2,1.2C-20752,4111.5-20757.2,4113.7-20757.2,4113.7z
		 M-20763.7,4119.4h2.6v-17.3h-2.6V4119.4z M-20767.9,4109.3c-0.8-0.9-2-1.4-3.2-1.4c-3.2,0.1-5.7,2.8-5.7,5.9
		c0,3.2,2.5,5.8,5.6,5.8l0,0c1.2,0,2.3-0.5,3-1.4h0.1v0.8c0,2.2-1.2,3.5-3.2,3.5c-1.3,0-2.5-0.8-2.9-2.1l-2.2,1
		c0.9,2.1,3,3.5,5.2,3.5c3,0,5.5-1.8,5.5-6.1v-10.5h-2.5v1H-20767.9z M-20770.9,4117.4c-1.9-0.1-3.4-1.6-3.3-3.5c0,0,0,0,0-0.1
		c-0.1-1.9,1.4-3.5,3.3-3.6c0,0,0,0,0.1,0c1.8,0.1,3.3,1.6,3.2,3.5v0.1c0.2,1.8-1.2,3.4-3,3.6
		C-20770.8,4117.4-20770.9,4117.4-20770.9,4117.4z M-20737.2,4102.1h-6.2v17.3h2.6v-6.5h3.6c3,0.2,5.5-2.1,5.7-5.1s-2.1-5.5-5.1-5.7
		C-20736.9,4102.1-20737,4102.1-20737.2,4102.1L-20737.2,4102.1z M-20737.1,4110.4h-3.7v-5.9h3.7c1.6,0,3,1.3,3,2.9
		S-20735.4,4110.3-20737.1,4110.4L-20737.1,4110.4z M-20721.2,4107.9c-1.9-0.2-3.7,0.9-4.6,2.6l2.3,1c0.5-0.8,1.4-1.3,2.3-1.2
		c1.4-0.1,2.6,0.9,2.8,2.2v0.1c-0.8-0.4-1.7-0.7-2.6-0.7c-2.5,0-5,1.4-5,3.9c0.1,2.2,2,4,4.2,3.9c0,0,0,0,0.1,0
		c1.3,0,2.6-0.6,3.3-1.7h0.1v1.4h2.5v-6.6C-20715.9,4109.9-20718.3,4107.7-20721.2,4107.9L-20721.2,4107.9z M-20721.5,4117.4
		c-0.8,0-2.1-0.4-2.1-1.5c0-1.4,1.5-1.8,2.8-1.8c0.8,0,1.6,0.2,2.3,0.6C-20718.7,4116.2-20719.9,4117.4-20721.5,4117.4
		L-20721.5,4117.4z M-20707,4108.3l-2.9,7.5h-0.1l-3-7.5h-2.8l4.6,10.5l-2.6,5.8h2.6l7-16.3H-20707L-20707,4108.3z M-20730.2,4119.4
		h2.6v-17.3h-2.6V4119.4z"/>
	<g transform="translate(0 0.374)">
		
			<linearGradient id="SVGID_1_" gradientUnits="userSpaceOnUse" x1="-42558.9414" y1="-430.7412" x2="-42560.2344" y2="-431.4131" gradientTransform="matrix(17.9674 0 0 34.524 743826.5 18992.0938)">
			<stop  offset="0" style="stop-color:#00A0FF"/>
			<stop  offset="7.000001e-03" style="stop-color:#00A1FF"/>
			<stop  offset="0.26" style="stop-color:#00BEFF"/>
			<stop  offset="0.512" style="stop-color:#00D2FF"/>
			<stop  offset="0.76" style="stop-color:#00DFFF"/>
			<stop  offset="1" style="stop-color:#00E3FF"/>
		</linearGradient>
		<path class="st2" d="M-20863.4,4087.9c-0.4,0.5-0.6,1.2-0.6,1.9v30.5c0,0.7,0.2,1.4,0.7,1.9l0.1,0.1l17.1-17.1v-0.3
			L-20863.4,4087.9z"/>
		
			<linearGradient id="SVGID_00000183223913748880435260000018076212580872570243_" gradientUnits="userSpaceOnUse" x1="-42546.0234" y1="-400.5135" x2="-42548.4062" y2="-400.5135" gradientTransform="matrix(14.0167 0 0 11.739 575524.8125 8806.8076)">
			<stop  offset="0" style="stop-color:#FFE000"/>
			<stop  offset="0.409" style="stop-color:#FFBD00"/>
			<stop  offset="0.775" style="stop-color:#FFA500"/>
			<stop  offset="1" style="stop-color:#FF9C00"/>
		</linearGradient>
		<path style="fill:url(#SVGID_00000183223913748880435260000018076212580872570243_);" d="M-20840.5,4111.1l-5.7-5.7v-0.4l5.7-5.7
			l0.1,0.1l6.8,3.9c1.9,1.1,1.9,2.9,0,4L-20840.5,4111.1z"/>
		
			<linearGradient id="SVGID_00000154385743382451602170000007800549060393600404_" gradientUnits="userSpaceOnUse" x1="-42569.5938" y1="-416.444" x2="-42570.957" y2="-418.2101" gradientTransform="matrix(23.063 0 0 17.7999 960926.375 11525.166)">
			<stop  offset="0" style="stop-color:#FF3A44"/>
			<stop  offset="1" style="stop-color:#C31162"/>
		</linearGradient>
		<path style="fill:url(#SVGID_00000154385743382451602170000007800549060393600404_);" d="M-20840.4,4111l-5.8-5.8l-17.3,17.3
			c0.7,0.7,1.7,0.7,2.9,0.1L-20840.4,4111"/>
		
			<linearGradient id="SVGID_00000096022203474410514210000015608004746354956941_" gradientUnits="userSpaceOnUse" x1="-42570.7969" y1="-414.5658" x2="-42570.1875" y2="-415.3578" gradientTransform="matrix(23.063 0 0 17.7306 960926.375 11476.1973)">
			<stop  offset="0" style="stop-color:#32A071"/>
			<stop  offset="6.900000e-02" style="stop-color:#2DA771"/>
			<stop  offset="0.476" style="stop-color:#15CF74"/>
			<stop  offset="0.801" style="stop-color:#06E775"/>
			<stop  offset="1" style="stop-color:#00F076"/>
		</linearGradient>
		<path style="fill:url(#SVGID_00000096022203474410514210000015608004746354956941_);" d="M-20840.4,4099.4l-20.2-11.5
			c-0.9-0.7-2.1-0.6-2.9,0.1l17.3,17.1C-20846.2,4105.2-20840.4,4099.4-20840.4,4099.4z"/>
	</g>
</g>
<path class="st6" d="M56.4,39.6L36,51.1c-0.8,0.6-2,0.6-2.8,0l-0.1,0.1l0.1,0.1c0.8,0.6,2,0.6,2.8,0L56.4,39.6z"/>
<path class="st7" d="M33,51.1c-0.4-0.6-0.6-1.3-0.6-2v0.1c0,0.7,0.2,1.4,0.7,2v-0.1H33L33,51.1z M63.4,35.7l-7,3.9l0.1,0.1
	L63.4,35.7c0.8-0.2,1.3-1,1.4-1.9C64.8,34.5,64.2,35.1,63.4,35.7z"/>
<path class="st8" d="M36,16.4L63.4,32c0.8,0.6,1.4,1.1,1.4,1.8c-0.1-0.9-0.6-1.6-1.4-2L36,16.2c-2-1.1-3.5-0.3-3.5,2v0.1
	C32.4,16.2,34,15.3,36,16.4z"/>
</svg>
